<svg xmlns="http://www.w3.org/2000/svg" version="1.1" width="512px" height="512px" style="shape-rendering:geometricPrecision; text-rendering:geometricPrecision; image-rendering:optimizeQuality; fill-rule:evenodd; clip-rule:evenodd" xmlns:xlink="http://www.w3.org/1999/xlink">
<g><path style="opacity:0.977" fill="#030302" d="M 418.5,78.5 C 415.525,80.8239 412.192,81.6573 408.5,81C 381.897,57.5304 351.23,41.697 316.5,33.5C 262.782,23.7649 214.115,35.0983 170.5,67.5C 169.941,79.889 169.108,92.2223 168,104.5C 165.419,110.378 160.919,113.712 154.5,114.5C 149.167,114.5 143.833,114.5 138.5,114.5C 138.5,122.833 138.5,131.167 138.5,139.5C 136.862,144.987 133.195,146.82 127.5,145C 123.623,141.292 119.957,137.458 116.5,133.5C 97.0991,172.317 92.0991,212.983 101.5,255.5C 111.506,255.666 121.506,255.5 131.5,255C 140.13,244.702 149.13,234.702 158.5,225C 163.98,222.127 167.647,223.627 169.5,229.5C 169.5,238.167 169.5,246.833 169.5,255.5C 174.833,255.5 180.167,255.5 185.5,255.5C 192.458,256.393 197.292,260.06 200,266.5C 200.667,294.5 200.667,322.5 200,350.5C 197.833,356.667 193.667,360.833 187.5,363C 180.809,363.169 174.142,363.669 167.5,364.5C 171.872,372.652 173.705,381.319 173,390.5C 171.277,400.899 169.277,411.233 167,421.5C 164.859,424.321 162.025,425.654 158.5,425.5C 154.432,424.216 152.432,421.383 152.5,417C 155.259,405.287 156.759,393.453 157,381.5C 155.753,375.007 152.92,369.34 148.5,364.5C 113.171,363.667 77.838,363.167 42.5,363C 37.8151,361.65 34.3151,358.817 32,354.5C 30.8567,339.398 30.3567,324.231 30.5,309C 30.6667,294.833 30.8333,280.667 31,266.5C 33.6829,260.48 38.1829,256.647 44.5,255C 58.1626,254.5 71.8293,254.333 85.5,254.5C 79.2546,221.819 80.7546,189.486 90,157.5C 94.1131,144.81 98.7797,132.477 104,120.5C 102.954,118.91 101.787,117.41 100.5,116C 71.5,115.667 42.5,115.333 13.5,115C 7.03082,113.277 2.36415,109.444 -0.5,103.5C -0.5,74.8333 -0.5,46.1667 -0.5,17.5C 2.0678,12.4363 6.0678,8.93634 11.5,7C 60.1667,6.33333 108.833,6.33333 157.5,7C 162.91,8.74251 166.744,12.2425 169,17.5C 170.092,27.445 170.925,37.445 171.5,47.5C 227.517,12.4151 286.85,5.58178 349.5,27C 375.619,37.1239 398.786,51.6239 419,70.5C 419.722,73.2605 419.555,75.9272 418.5,78.5 Z"/></g>
<g><path style="opacity:1" fill="#ccf29c" d="M 15.5,22.5 C 54.5,22.5 93.5,22.5 132.5,22.5C 132.5,27.5 132.5,32.5 132.5,37.5C 115.83,37.3334 99.1633,37.5001 82.5,38C 77.3106,40.9132 76.1439,45.0799 79,50.5C 80.3297,51.5822 81.8297,52.2488 83.5,52.5C 99.6581,53.4964 115.991,53.8298 132.5,53.5C 132.5,58.5 132.5,63.5 132.5,68.5C 122.727,68.0525 113.061,68.5525 103.5,70C 98.9558,75.7821 99.9558,80.2821 106.5,83.5C 114.676,84.1666 123.01,84.8333 131.5,85.5C 128.55,95.4489 122.216,102.116 112.5,105.5C 110.329,103.5 107.996,101.666 105.5,100C 75.5,99.6667 45.5,99.3333 15.5,99C 14.1685,73.4023 14.1685,47.9023 15.5,22.5 Z"/></g>
<g><path style="opacity:1" fill="#94d37a" d="M 15.5,22.5 C 61.3315,21.3351 107.332,21.1685 153.5,22C 154.495,47.759 154.828,73.5923 154.5,99.5C 146.16,99.3336 137.827,99.5003 129.5,100C 127.34,100.996 125.673,102.496 124.5,104.5C 123.833,108.833 123.167,113.167 122.5,117.5C 118.79,113.792 115.457,109.792 112.5,105.5C 122.216,102.116 128.55,95.4489 131.5,85.5C 123.01,84.8333 114.676,84.1666 106.5,83.5C 116.605,83.9495 126.605,83.4495 136.5,82C 139.979,76.0099 138.645,71.5099 132.5,68.5C 132.5,63.5 132.5,58.5 132.5,53.5C 115.991,53.8298 99.6581,53.4964 83.5,52.5C 100.503,52.6666 117.503,52.4999 134.5,52C 140.314,46.199 139.647,41.3657 132.5,37.5C 132.5,32.5 132.5,27.5 132.5,22.5C 93.5,22.5 54.5,22.5 15.5,22.5 Z"/></g>
<g><path style="opacity:1" fill="#e9f5fe" d="M 316.5,33.5 C 352.938,48.8214 383.772,71.8214 409,102.5C 428.153,129.647 438.986,159.813 441.5,193C 440.5,206 439.5,219 438.5,232C 438.098,242.891 440.598,253.057 446,262.5C 456.612,273.449 465.279,285.782 472,299.5C 474.263,306.005 473.929,312.338 471,318.5C 466.074,321.714 460.907,324.548 455.5,327C 453.622,328.543 452.122,330.376 451,332.5C 451.549,340.885 452.215,349.219 453,357.5C 451.501,364.83 447.001,368.83 439.5,369.5C 448.6,380.113 446.933,388.779 434.5,395.5C 432.826,397.349 431.826,399.516 431.5,402C 433.539,407.242 435.706,412.409 438,417.5C 439.967,426.422 437.8,434.089 431.5,440.5C 425.79,440.529 420.123,440.029 414.5,439C 403.717,436.459 393.051,433.626 382.5,430.5C 374.986,431.091 368.653,434.091 363.5,439.5C 351.448,435.461 342.281,438.794 336,449.5C 335.5,462.496 335.333,475.496 335.5,488.5C 275.157,489.163 215.157,488.496 155.5,486.5C 157.368,474.493 159.368,462.493 161.5,450.5C 161.716,445.911 159.716,442.911 155.5,441.5C 156.5,436.167 157.5,430.833 158.5,425.5C 162.025,425.654 164.859,424.321 167,421.5C 169.277,411.233 171.277,400.899 173,390.5C 173.705,381.319 171.872,372.652 167.5,364.5C 174.142,363.669 180.809,363.169 187.5,363C 193.667,360.833 197.833,356.667 200,350.5C 200.667,322.5 200.667,294.5 200,266.5C 197.292,260.06 192.458,256.393 185.5,255.5C 180.695,254.513 175.695,254.179 170.5,254.5C 170.826,245.983 170.493,237.65 169.5,229.5C 167.647,223.627 163.98,222.127 158.5,225C 149.13,234.702 140.13,244.702 131.5,255C 121.506,255.5 111.506,255.666 101.5,255.5C 92.0991,212.983 97.0991,172.317 116.5,133.5C 119.957,137.458 123.623,141.292 127.5,145C 133.195,146.82 136.862,144.987 138.5,139.5C 139.492,131.684 139.826,123.684 139.5,115.5C 144.695,115.821 149.695,115.487 154.5,114.5C 160.919,113.712 165.419,110.378 168,104.5C 169.108,92.2223 169.941,79.889 170.5,67.5C 214.115,35.0983 262.782,23.7649 316.5,33.5 Z"/></g>
<g><path style="opacity:1" fill="#d5eafc" d="M 316.5,33.5 C 351.23,41.697 381.897,57.5304 408.5,81C 412.192,81.6573 415.525,80.8239 418.5,78.5C 422.195,82.5259 425.862,86.5259 429.5,90.5C 427.809,93.6454 427.309,96.9787 428,100.5C 460.674,143.208 472.007,191.208 462,244.5C 463.895,258.626 470.228,270.293 481,279.5C 488.4,288.132 493.567,297.965 496.5,309C 496.646,311.034 495.98,312.701 494.5,314C 488.086,316.62 482.253,320.12 477,324.5C 474.22,328.005 472.72,332.005 472.5,336.5C 473.351,341.236 474.517,345.902 476,350.5C 477.269,357.903 474.103,361.737 466.5,362C 459.999,366.54 459.832,371.373 466,376.5C 469.035,382.168 467.535,386.001 461.5,388C 455.23,392.709 453.064,398.876 455,406.5C 466.149,430.554 458.315,441.887 431.5,440.5C 437.8,434.089 439.967,426.422 438,417.5C 435.706,412.409 433.539,407.242 431.5,402C 431.826,399.516 432.826,397.349 434.5,395.5C 446.933,388.779 448.6,380.113 439.5,369.5C 447.001,368.83 451.501,364.83 453,357.5C 452.215,349.219 451.549,340.885 451,332.5C 452.122,330.376 453.622,328.543 455.5,327C 460.907,324.548 466.074,321.714 471,318.5C 473.929,312.338 474.263,306.005 472,299.5C 465.279,285.782 456.612,273.449 446,262.5C 440.598,253.057 438.098,242.891 438.5,232C 439.5,219 440.5,206 441.5,193C 438.986,159.813 428.153,129.647 409,102.5C 383.772,71.8214 352.938,48.8214 316.5,33.5 Z"/></g>
<g><path style="opacity:1" fill="#070905" d="M 35.5,37.5 C 42.8409,37.3337 50.1742,37.5003 57.5,38C 62.3079,39.4496 64.1412,42.6162 63,47.5C 62.1667,49.6667 60.6667,51.1667 58.5,52C 50.5,52.6667 42.5,52.6667 34.5,52C 29.0028,46.6829 29.3361,41.8495 35.5,37.5 Z"/></g>
<g><path style="opacity:1" fill="#060704" d="M 132.5,37.5 C 139.647,41.3657 140.314,46.199 134.5,52C 117.503,52.4999 100.503,52.6666 83.5,52.5C 81.8297,52.2488 80.3297,51.5822 79,50.5C 76.1439,45.0799 77.3106,40.9132 82.5,38C 99.1633,37.5001 115.83,37.3334 132.5,37.5 Z"/></g>
<g><path style="opacity:1" fill="#030304" d="M 252.5,62.5 C 256.95,62.1416 260.45,63.8083 263,67.5C 266.833,73.3333 270.667,79.1667 274.5,85C 280.528,85.8303 286.528,85.6636 292.5,84.5C 296.667,78.1667 300.833,71.8333 305,65.5C 306.594,63.7029 308.594,62.7029 311,62.5C 322.871,65.1043 333.538,70.1043 343,77.5C 342.821,84.5692 341.821,91.5692 340,98.5C 339.333,101.167 339.333,103.833 340,106.5C 343.459,110.639 347.459,113.972 352,116.5C 360.79,114.672 369.623,113.506 378.5,113C 386.785,123.068 391.619,134.568 393,147.5C 386.356,153.419 379.189,158.752 371.5,163.5C 370.336,169.472 370.17,175.472 371,181.5C 378.865,186.099 386.198,191.433 393,197.5C 391.204,209.214 387.204,220.214 381,230.5C 380.25,231.126 379.416,231.626 378.5,232C 368.766,231.519 359.1,230.519 349.5,229C 346.333,232.167 343.167,235.333 340,238.5C 340.57,246.867 341.737,255.2 343.5,263.5C 343.485,265.634 342.985,267.634 342,269.5C 331.516,276.66 320.016,280.826 307.5,282C 301.922,274.844 296.589,267.51 291.5,260C 285.804,259.17 280.137,259.337 274.5,260.5C 269.681,268.137 264.348,275.304 258.5,282C 245.669,281.005 234.169,276.505 224,268.5C 223.333,264.833 223.333,261.167 224,257.5C 225.787,251.242 226.787,244.909 227,238.5C 223.167,236 220,232.833 217.5,229C 210.153,229.525 202.82,230.525 195.5,232C 192.833,232.667 190.167,232.667 187.5,232C 181.283,223.395 176.783,213.895 174,203.5C 173.245,200.697 173.578,198.03 175,195.5C 181.696,190.638 188.53,185.971 195.5,181.5C 196.663,175.863 196.83,170.196 196,164.5C 189.92,160.21 183.753,156.043 177.5,152C 173.87,148.95 172.703,145.117 174,140.5C 176.842,131.815 180.509,123.481 185,115.5C 186.594,113.703 188.594,112.703 191,112.5C 199.753,114.568 208.586,115.734 217.5,116C 221.858,112.494 225.192,108.328 227.5,103.5C 225.219,94.6061 224.052,85.6061 224,76.5C 232.838,70.3304 242.338,65.6637 252.5,62.5 Z"/></g>
<g><path style="opacity:1" fill="#070905" d="M 35.5,68.5 C 49.8372,68.3334 64.1705,68.5001 78.5,69C 85.6371,72.6922 86.3037,77.3588 80.5,83C 65.1667,83.6667 49.8333,83.6667 34.5,83C 29.0028,77.6829 29.3361,72.8495 35.5,68.5 Z"/></g>
<g><path style="opacity:1" fill="#070905" d="M 132.5,68.5 C 138.645,71.5099 139.979,76.0099 136.5,82C 126.605,83.4495 116.605,83.9495 106.5,83.5C 99.9558,80.2821 98.9558,75.7821 103.5,70C 113.061,68.5525 122.727,68.0525 132.5,68.5 Z"/></g>
<g><path style="opacity:1" fill="#4e6b8d" d="M 294.5,101.5 C 304.281,112.303 311.615,124.636 316.5,138.5C 298.127,123.388 278.461,121.555 257.5,133C 235.102,150.435 230.268,171.935 243,197.5C 259.6,219.943 280.767,225.443 306.5,214C 310.042,211.734 313.375,209.234 316.5,206.5C 313.859,220.274 307.525,232.44 297.5,243C 294.305,243.181 291.305,243.681 288.5,244.5C 283.134,244.677 277.8,244.344 272.5,243.5C 270.701,243.577 269.034,244.077 267.5,245C 262.328,252.331 256.994,259.498 251.5,266.5C 247.749,265.027 244.083,263.36 240.5,261.5C 240.167,260.167 239.833,258.833 239.5,257.5C 241.132,249.518 242.299,241.518 243,233.5C 236.652,227.319 230.485,220.986 224.5,214.5C 223.148,213.104 221.481,212.437 219.5,212.5C 212.033,214.027 204.533,215.36 197,216.5C 196.167,216.167 195.333,215.833 194.5,215.5C 192.537,211.773 190.871,207.94 189.5,204C 196.667,198.833 203.833,193.667 211,188.5C 211.985,186.634 212.485,184.634 212.5,182.5C 211.214,175.496 211.214,168.496 212.5,161.5C 212.205,159.029 211.205,156.863 209.5,155C 202.661,150.748 195.994,146.248 189.5,141.5C 190.631,136.583 192.797,132.249 196,128.5C 204.747,130.585 213.58,131.752 222.5,132C 228.645,125.524 235.145,119.357 242,113.5C 242.808,111.577 243.308,109.577 243.5,107.5C 242.295,100.806 240.961,94.1395 239.5,87.5C 239.57,86.2284 239.903,85.0617 240.5,84C 244.508,81.044 248.841,79.8773 253.5,80.5C 257.92,87.7543 262.92,94.5876 268.5,101C 277.173,100.321 285.84,100.488 294.5,101.5 Z"/></g>
<g><path style="opacity:1" fill="#324e6b" d="M 288.5,244.5 C 291.305,243.681 294.305,243.181 297.5,243C 307.525,232.44 313.859,220.274 316.5,206.5C 321.03,201.958 324.363,196.625 326.5,190.5C 325.94,187.288 324.273,184.955 321.5,183.5C 322.766,177.37 322.766,171.37 321.5,165.5C 326.47,163.562 328.303,159.895 327,154.5C 324.235,148.625 320.735,143.291 316.5,138.5C 311.615,124.636 304.281,112.303 294.5,101.5C 297.099,101.451 299.266,100.451 301,98.5C 305.167,92.3333 309.333,86.1667 313.5,80C 318.069,80.2987 322.402,81.6321 326.5,84C 327.059,84.7247 327.392,85.5581 327.5,86.5C 325.029,95.0316 323.863,103.698 324,112.5C 331.167,118.333 337.667,124.833 343.5,132C 352.144,132.14 360.644,130.973 369,128.5C 370.107,128.585 371.107,128.919 372,129.5C 374.372,133.609 375.705,137.942 376,142.5C 368.648,147.009 361.648,152.009 355,157.5C 355.712,165.996 355.545,174.496 354.5,183C 354.114,186.089 355.114,188.589 357.5,190.5C 364.443,194.458 370.777,199.125 376.5,204.5C 375.317,208.551 373.65,212.385 371.5,216C 362.461,215.258 353.461,214.258 344.5,213C 338.022,219.81 331.189,226.31 324,232.5C 324.312,241.572 325.478,250.572 327.5,259.5C 327.182,260.647 326.516,261.481 325.5,262C 321.793,263.402 318.126,264.902 314.5,266.5C 309.71,259.753 305.043,252.92 300.5,246C 296.637,244.646 292.637,244.146 288.5,244.5 Z"/></g>
<g><path style="opacity:0.968" fill="#010101" d="M 511.5,302.5 C 511.5,307.5 511.5,312.5 511.5,317.5C 509.787,320.725 507.454,323.559 504.5,326C 499.414,328.96 494.247,331.794 489,334.5C 490.954,343.018 491.621,351.684 491,360.5C 489.834,365.499 487.167,369.499 483,372.5C 483.328,377.475 483.328,382.475 483,387.5C 479.398,392.938 475.232,397.938 470.5,402.5C 480.212,419.967 477.879,435.467 463.5,449C 455.507,454.329 446.674,456.829 437,456.5C 419.626,456.077 402.793,452.91 386.5,447C 379.217,445.393 374.717,448.226 373,455.5C 372.667,470.5 372.333,485.5 372,500.5C 371.5,502.333 370.333,503.5 368.5,504C 293.167,504.667 217.833,504.667 142.5,504C 139.295,502.585 137.628,500.085 137.5,496.5C 140.774,479.855 143.941,463.188 147,446.5C 148.954,443.436 151.787,441.77 155.5,441.5C 159.716,442.911 161.716,445.911 161.5,450.5C 159.368,462.493 157.368,474.493 155.5,486.5C 154.596,487.209 154.263,488.209 154.5,489.5C 222.335,489.833 290.002,489.499 357.5,488.5C 357.333,475.496 357.5,462.496 358,449.5C 359.592,445.979 361.425,442.646 363.5,439.5C 368.653,434.091 374.986,431.091 382.5,430.5C 393.051,433.626 403.717,436.459 414.5,439C 420.123,440.029 425.79,440.529 431.5,440.5C 458.315,441.887 466.149,430.554 455,406.5C 453.064,398.876 455.23,392.709 461.5,388C 467.535,386.001 469.035,382.168 466,376.5C 459.832,371.373 459.999,366.54 466.5,362C 474.103,361.737 477.269,357.903 476,350.5C 474.517,345.902 473.351,341.236 472.5,336.5C 472.72,332.005 474.22,328.005 477,324.5C 482.253,320.12 488.086,316.62 494.5,314C 495.98,312.701 496.646,311.034 496.5,309C 493.567,297.965 488.4,288.132 481,279.5C 470.228,270.293 463.895,258.626 462,244.5C 472.007,191.208 460.674,143.208 428,100.5C 427.309,96.9787 427.809,93.6454 429.5,90.5C 435.008,88.3913 439.508,89.7246 443,94.5C 474.091,135.199 485.258,180.866 476.5,231.5C 476.32,241.085 478.487,250.085 483,258.5C 495.804,271.129 505.304,285.796 511.5,302.5 Z"/></g>
<g><path style="opacity:1" fill="#2c3f24" d="M 124.5,104.5 C 124.827,109.214 124.493,113.88 123.5,118.5C 122.893,118.376 122.56,118.043 122.5,117.5C 123.167,113.167 123.833,108.833 124.5,104.5 Z"/></g>
<g><path style="opacity:1" fill="#a4adb3" d="M 154.5,114.5 C 149.695,115.487 144.695,115.821 139.5,115.5C 139.826,123.684 139.492,131.684 138.5,139.5C 138.5,131.167 138.5,122.833 138.5,114.5C 143.833,114.5 149.167,114.5 154.5,114.5 Z"/></g>
<g><path style="opacity:1" fill="#030304" d="M 316.5,138.5 C 320.735,143.291 324.235,148.625 327,154.5C 328.303,159.895 326.47,163.562 321.5,165.5C 319.345,165.628 317.345,165.128 315.5,164C 305.11,142.315 288.776,135.981 266.5,145C 250.177,157.726 247.01,173.226 257,191.5C 267.644,204.38 280.811,207.88 296.5,202C 304.167,198.333 309.833,192.667 313.5,185C 316.014,183.748 318.68,183.248 321.5,183.5C 324.273,184.955 325.94,187.288 326.5,190.5C 324.363,196.625 321.03,201.958 316.5,206.5C 313.375,209.234 310.042,211.734 306.5,214C 280.767,225.443 259.6,219.943 243,197.5C 230.268,171.935 235.102,150.435 257.5,133C 278.461,121.555 298.127,123.388 316.5,138.5 Z"/></g>
<g><path style="opacity:1" fill="#e8f4fd" d="M 321.5,165.5 C 322.766,171.37 322.766,177.37 321.5,183.5C 318.68,183.248 316.014,183.748 313.5,185C 309.833,192.667 304.167,198.333 296.5,202C 280.811,207.88 267.644,204.38 257,191.5C 247.01,173.226 250.177,157.726 266.5,145C 288.776,135.981 305.11,142.315 315.5,164C 317.345,165.128 319.345,165.628 321.5,165.5 Z"/></g>
<g><path style="opacity:1" fill="#543015" d="M 153.5,252.5 C 153.56,251.957 153.893,251.624 154.5,251.5C 155.492,255.783 155.826,260.116 155.5,264.5C 154.833,260.5 154.167,256.5 153.5,252.5 Z"/></g>
<g><path style="opacity:1" fill="#fd9142" d="M 153.5,252.5 C 154.167,256.5 154.833,260.5 155.5,264.5C 156.203,266.716 157.536,268.549 159.5,270C 168.16,270.5 176.827,270.666 185.5,270.5C 185.667,296.169 185.5,321.835 185,347.5C 177.921,348.48 170.755,348.813 163.5,348.5C 163.5,343.167 163.5,337.833 163.5,332.5C 168.507,330.486 170.34,326.819 169,321.5C 167.549,319.536 165.716,318.203 163.5,317.5C 163.5,312.167 163.5,306.833 163.5,301.5C 169.407,298.777 170.907,294.443 168,288.5C 166.416,287.139 164.582,286.472 162.5,286.5C 160.494,275.49 154.161,268.157 143.5,264.5C 146.457,260.208 149.79,256.208 153.5,252.5 Z"/></g>
<g><path style="opacity:1" fill="#9da5ab" d="M 169.5,229.5 C 170.493,237.65 170.826,245.983 170.5,254.5C 175.695,254.179 180.695,254.513 185.5,255.5C 180.167,255.5 174.833,255.5 169.5,255.5C 169.5,246.833 169.5,238.167 169.5,229.5 Z"/></g>
<g><path style="opacity:1" fill="#fcba61" d="M 143.5,264.5 C 154.161,268.157 160.494,275.49 162.5,286.5C 155.492,286.334 148.492,286.5 141.5,287C 137.788,289.513 136.622,293.013 138,297.5C 139.214,299.049 140.714,300.215 142.5,301C 149.492,301.5 156.492,301.666 163.5,301.5C 163.5,306.833 163.5,312.167 163.5,317.5C 148.83,317.333 134.163,317.5 119.5,318C 112.947,322.527 112.947,327.194 119.5,332C 134.163,332.5 148.83,332.667 163.5,332.5C 163.5,337.833 163.5,343.167 163.5,348.5C 124.261,348.83 85.0941,348.497 46,347.5C 45.1724,321.928 45.3391,296.428 46.5,271C 76.5,270.667 106.5,270.333 136.5,270C 138.996,268.334 141.329,266.5 143.5,264.5 Z"/></g>
<g><path style="opacity:1" fill="#080502" d="M 65.5,286.5 C 82.5033,286.333 99.5033,286.5 116.5,287C 120.212,289.513 121.378,293.013 120,297.5C 118.786,299.049 117.286,300.215 115.5,301C 99.1667,301.667 82.8333,301.667 66.5,301C 60.1923,296.615 59.859,291.782 65.5,286.5 Z"/></g>
<g><path style="opacity:1" fill="#080502" d="M 162.5,286.5 C 164.582,286.472 166.416,287.139 168,288.5C 170.907,294.443 169.407,298.777 163.5,301.5C 156.492,301.666 149.492,301.5 142.5,301C 140.714,300.215 139.214,299.049 138,297.5C 136.622,293.013 137.788,289.513 141.5,287C 148.492,286.5 155.492,286.334 162.5,286.5 Z"/></g>
<g><path style="opacity:1" fill="#080502" d="M 65.5,317.5 C 75.8387,317.334 86.172,317.5 96.5,318C 100.212,320.513 101.378,324.013 100,328.5C 98.786,330.049 97.286,331.215 95.5,332C 85.8333,332.667 76.1667,332.667 66.5,332C 60.2053,327.663 59.872,322.829 65.5,317.5 Z"/></g>
<g><path style="opacity:1" fill="#070402" d="M 163.5,317.5 C 165.716,318.203 167.549,319.536 169,321.5C 170.34,326.819 168.507,330.486 163.5,332.5C 148.83,332.667 134.163,332.5 119.5,332C 112.947,327.194 112.947,322.527 119.5,318C 134.163,317.5 148.83,317.333 163.5,317.5 Z"/></g>
<g><path style="opacity:1" fill="#d6ebfd" d="M 363.5,439.5 C 361.425,442.646 359.592,445.979 358,449.5C 357.5,462.496 357.333,475.496 357.5,488.5C 350.167,488.5 342.833,488.5 335.5,488.5C 335.333,475.496 335.5,462.496 336,449.5C 342.281,438.794 351.448,435.461 363.5,439.5 Z"/></g>
<g><path style="opacity:1" fill="#b8c2ca" d="M 155.5,486.5 C 215.157,488.496 275.157,489.163 335.5,488.5C 342.833,488.5 350.167,488.5 357.5,488.5C 290.002,489.499 222.335,489.833 154.5,489.5C 154.263,488.209 154.596,487.209 155.5,486.5 Z"/></g>
</svg>
